<?xml version="1.0" standalone="no"?>
<!DOCTYPE svg PUBLIC "-//W3C//DTD SVG 20010904//EN"
 "http://www.w3.org/TR/2001/REC-SVG-20010904/DTD/svg10.dtd">
<svg version="1.0" xmlns="http://www.w3.org/2000/svg"
 width="256.000000pt" height="256.000000pt" viewBox="0 0 256.000000 256.000000"
 preserveAspectRatio="xMidYMid meet">
<metadata>
Created by potrace 1.15, written by Peter Selinger 2001-2017
</metadata>
<g transform="translate(0.000000,256.000000) scale(0.100000,-0.100000)"
fill="#000000" stroke="none">
<path d="M930 2269 c-164 -25 -299 -96 -425 -223 -76 -76 -99 -107 -138 -186
-62 -127 -80 -207 -80 -350 1 -182 48 -322 159 -469 91 -121 248 -225 404
-268 102 -28 312 -25 410 6 284 88 475 297 537 585 18 86 12 261 -12 351 -70
258 -284 469 -542 535 -91 24 -227 32 -313 19z m290 -145 c267 -79 459 -335
460 -612 1 -284 -199 -542 -476 -612 -290 -74 -593 66 -724 335 -50 102 -75
222 -67 321 25 284 226 516 503 578 83 19 223 14 304 -10z"/>
<path d="M945 2030 c-188 -39 -348 -186 -400 -369 -38 -133 -26 -191 40 -191
45 0 62 19 70 82 23 170 138 301 300 343 32 8 73 15 91 15 58 0 86 68 44 110
-22 22 -71 25 -145 10z"/>
<path d="M1616 928 c-24 -33 -20 -54 17 -95 31 -34 33 -38 24 -77 -19 -84 -1
-115 166 -284 172 -173 210 -198 289 -189 127 15 201 139 153 254 -19 46 -295
326 -343 349 -23 11 -54 15 -96 13 -56 -3 -66 -1 -95 24 -41 35 -93 37 -115 5z
m386 -296 c81 -81 148 -153 148 -160 0 -17 -45 -62 -62 -62 -16 0 -308 292
-308 308 0 7 11 24 25 37 13 14 30 25 37 25 7 0 79 -67 160 -148z"/>
</g>
</svg>
